<?xml version="1.0" encoding="utf-8"?>
<!-- Generator: Adobe Illustrator 26.0.3, SVG Export Plug-In . SVG Version: 6.00 Build 0)  -->
<svg version="1.1" id="Layer_1" xmlns="http://www.w3.org/2000/svg" xmlns:xlink="http://www.w3.org/1999/xlink" x="0px" y="0px"
	 viewBox="0 0 300 300" style="enable-background:new 0 0 300 300;" xml:space="preserve">
<style type="text/css">
	.st0{fill:#E6E6E6;}
	.st1{fill:none;stroke:#000000;stroke-miterlimit:10;}
	.st2{enable-background:new    ;}
</style>
<rect class="st0" width="300" height="300"/>
<path class="st1" d="M223,200"/>
<path class="st1" d="M128,176"/>
<g class="st2">
	<path d="M90.2,104.6h7.7l34.1,76.6h-11.2l-10.1-22.6H78.3l-9.5,22.6H57.5L90.2,104.6z M106.2,148.9L94,121.4l-11.4,27.6H106.2z"/>
	<path d="M139.2,105.1h9.9v76.1h-9.9V105.1z"/>
	<path d="M163.7,105.1h9.9v76.1h-9.9V105.1z"/>
	<path d="M211.9,130.9c7.6,0,14,2.5,19,7.4c5,4.9,7.6,11.1,7.6,18.6c0,7.2-2.6,13.2-7.7,18s-11.6,7.2-19.3,7.2
		c-7.5,0-13.8-2.4-18.9-7.3c-5-4.8-7.6-10.9-7.6-18.2c0-7.3,2.6-13.4,7.7-18.3C197.8,133.4,204.2,130.9,211.9,130.9z M211.4,139.9
		c-4.8,0-8.7,1.6-11.7,4.7c-3.1,3.1-4.6,7.1-4.6,11.9c0,4.8,1.6,8.7,4.7,11.7c3.1,3,7.1,4.5,12,4.5c4.9,0,8.9-1.5,12-4.6
		c3.1-3.1,4.7-7,4.7-11.8c0-4.8-1.6-8.7-4.8-11.8S216.3,139.9,211.4,139.9z"/>
</g>
</svg>
